<svg width="22" height="30" viewBox="0 0 22 30" fill="none" xmlns="http://www.w3.org/2000/svg">
  <path d="M4.35367 9.18288C4.2204 10.7029 4.12688 13.3928 4.96624 14.5378C4.96624 14.5378 4.57111 11.5829 8.11326 7.87539C9.53947 6.3829 9.86913 4.35292 9.37113 2.83044C9.08823 1.96794 8.57152 1.25545 8.12261 0.757956C7.86075 0.465459 8.06182 -0.0170367 8.44292 0.000463137C10.7482 0.110462 14.4845 0.795455 16.072 5.05541C16.7687 6.9254 16.8202 8.85788 16.4882 10.8229C16.2777 12.0778 15.5296 14.8678 17.2363 15.2103C18.4545 15.4553 19.0437 14.4203 19.3079 13.6753C19.4177 13.3653 19.7988 13.2878 20.0046 13.5353C22.0621 16.0378 22.2374 18.9853 21.8119 21.5228C20.9889 26.4277 16.3432 29.9977 11.7279 29.9977C5.96225 29.9977 1.37265 26.4702 0.182582 20.0853C-0.296719 17.5078 -0.0535606 12.4078 3.66394 8.80788C3.93983 8.53788 4.39108 8.77788 4.35367 9.18288Z" fill="url(#paint0_radial_81_82)"/>
  <path d="M13.835 18.3551C11.7097 15.4302 12.6613 12.0927 13.1827 10.7627C13.2528 10.5877 13.0658 10.4227 12.9185 10.5302C12.0043 11.1952 10.1315 12.7602 9.25941 14.9627C8.0787 17.9401 8.16287 19.3976 8.86195 21.1776C9.2828 22.2501 8.79414 22.4776 8.54865 22.5176C8.31017 22.5576 8.09039 22.3876 7.91503 22.2101C7.41067 21.6922 7.0512 21.0343 6.87694 20.3101C6.83953 20.1551 6.65015 20.1126 6.56364 20.2401C5.90898 21.2076 5.56997 22.7601 5.5536 23.8576C5.50216 27.2501 8.12312 30 11.2935 30C15.2893 30 18.2001 25.2751 15.9042 21.3251C15.2378 20.1751 14.6112 19.4226 13.835 18.3551Z" fill="url(#paint1_radial_81_82)"/>
  <defs>
    <radialGradient id="paint0_radial_81_82" cx="0" cy="0" r="1" gradientUnits="userSpaceOnUse" gradientTransform="translate(10.5859 30.0754) rotate(-179.734) scale(16.5038 28.9547)">
      <stop offset="0.314" stop-color="#FF9800"/>
      <stop offset="0.662" stop-color="#FF6D00"/>
      <stop offset="0.972" stop-color="#F44336"/>
    </radialGradient>
    <radialGradient id="paint1_radial_81_82" cx="0" cy="0" r="1" gradientUnits="userSpaceOnUse" gradientTransform="translate(11.5133 12.5148) rotate(90.5412) scale(18.4638 12.9956)">
      <stop offset="0.214" stop-color="#FFF176"/>
      <stop offset="0.328" stop-color="#FFF27D"/>
      <stop offset="0.487" stop-color="#FFF48F"/>
      <stop offset="0.672" stop-color="#FFF7AD"/>
      <stop offset="0.793" stop-color="#FFF9C4"/>
      <stop offset="0.822" stop-color="#FFF8BD" stop-opacity="0.804"/>
      <stop offset="0.863" stop-color="#FFF6AB" stop-opacity="0.529"/>
      <stop offset="0.91" stop-color="#FFF38D" stop-opacity="0.209"/>
      <stop offset="0.941" stop-color="#FFF176" stop-opacity="0"/>
    </radialGradient>
  </defs>
</svg>