<svg width="22" height="30" viewBox="0 0 22 30" fill="none" xmlns="http://www.w3.org/2000/svg">
  <path d="M6.73685 0C7.20738 0.679076 7.51739 1.49796 7.69543 2.38233C7.98456 3.81887 7.9661 5.42837 7.86885 7.06981C7.67417 10.3528 7.18915 13.8082 7.7551 15.9525C8.28638 17.9652 9.1382 19.1606 10.0833 19.7484C10.4898 20.0013 10.9177 20.1412 11.3506 20.1774C12.3854 16.0599 12.1646 10.8052 10.4621 7.25366C12.7162 10.3051 13.7809 14.9129 13.0931 19.7424L12.6838 19.9657C12.8116 19.914 12.9375 19.8539 13.0611 19.7859C15.0089 18.7186 16.6029 15.5944 15.9398 11.014C15.6351 8.90953 14.5894 5.94245 12.8396 3.64375C11.3258 1.65524 9.30463 0.150821 6.7368 0.000126458L6.73685 0ZM19.9751 11.611C19.936 12.3765 19.7589 13.0995 19.4828 13.7561C19.0002 14.9037 18.2498 15.8917 17.4374 16.8303C15.8124 18.7073 13.9383 20.4462 13.3203 22.2215C12.735 23.9033 12.7197 25.3374 13.0319 26.4781C13.1653 26.9663 13.365 27.4162 13.6205 27.8046C16.1243 26.11 18.363 22.686 18.9262 19.0723C18.9297 22.8458 17.4983 26.5809 14.8879 28.9988C16.5569 29.919 18.9103 29.3173 20.5623 25.978C21.3277 24.4308 22.0335 21.7203 21.9988 18.837C21.9692 16.3895 21.427 13.8246 19.9752 11.6112L19.9751 11.611ZM0.167897 16.259C-0.274191 19.1615 0.200904 21.7524 1.07697 23.8922C2.10893 26.4126 3.71943 28.2812 4.95218 29.1016C7.61273 30.8722 9.87114 29.7954 10.9777 27.866C7.82671 27.5434 5.21129 25.2802 3.82465 22.0101C5.64373 24.7575 8.84357 26.2039 11.6362 25.972C11.7148 25.4624 11.7222 24.9374 11.6581 24.4241C11.5083 23.2243 10.9649 21.9918 9.83851 20.9327C8.64949 19.8148 6.3866 19.5813 4.2879 19.0585C3.2386 18.7972 2.22515 18.4518 1.38447 17.7853C0.90322 17.4039 0.484068 16.8958 0.167991 16.2591L0.167897 16.259Z" fill="#0E820C"/>
</svg>