<svg width="22" height="30" viewBox="0 0 22 30" fill="none" xmlns="http://www.w3.org/2000/svg">
  <path fill-rule="evenodd" clip-rule="evenodd" d="M12.2222 1.63055C12.2222 1.1981 12.0935 0.783366 11.8642 0.477578C11.635 0.17179 11.3242 0 11 0C10.6758 0 10.365 0.17179 10.1358 0.477578C9.90655 0.783366 9.77778 1.1981 9.77778 1.63055V28.3694C9.77778 28.8019 9.90655 29.2166 10.1358 29.5224C10.365 29.8282 10.6758 30 11 30C11.3242 30 11.635 29.8282 11.8642 29.5224C12.0935 29.2166 12.2222 28.8019 12.2222 28.3694V1.63055ZM6.11111 5.14168C6.43526 5.14168 6.74614 5.31347 6.97535 5.61925C7.20456 5.92504 7.33333 6.33978 7.33333 6.77223V23.2256C7.33333 23.658 7.20456 24.0728 6.97535 24.3786C6.74614 24.6844 6.43526 24.8561 6.11111 24.8561C5.78696 24.8561 5.47608 24.6844 5.24687 24.3786C5.01766 24.0728 4.88889 23.658 4.88889 23.2256V6.77223C4.88889 6.33978 5.01766 5.92504 5.24687 5.61925C5.47608 5.31347 5.78696 5.14168 6.11111 5.14168ZM1.22222 10.2834C1.54638 10.2834 1.85725 10.4551 2.08646 10.7609C2.31568 11.0667 2.44444 11.4815 2.44444 11.9139V18.0861C2.44444 18.5185 2.31568 18.9333 2.08646 19.2391C1.85725 19.5449 1.54638 19.7166 1.22222 19.7166C0.898069 19.7166 0.587192 19.5449 0.357981 19.2391C0.128769 18.9333 4.83026e-09 18.5185 0 18.0861V11.9139C0 11.4815 0.128769 11.0667 0.357981 10.7609C0.587192 10.4551 0.898069 10.2834 1.22222 10.2834ZM15.8889 5.14168C16.213 5.14168 16.5239 5.31347 16.7531 5.61925C16.9823 5.92504 17.1111 6.33978 17.1111 6.77223V23.2256C17.1111 23.658 16.9823 24.0728 16.7531 24.3786C16.5239 24.6844 16.213 24.8561 15.8889 24.8561C15.5647 24.8561 15.2539 24.6844 15.0246 24.3786C14.7954 24.0728 14.6667 23.658 14.6667 23.2256V6.77223C14.6667 6.33978 14.7954 5.92504 15.0246 5.61925C15.2539 5.31347 15.5647 5.14168 15.8889 5.14168ZM22 11.9139C22 11.4815 21.8712 11.0667 21.642 10.7609C21.4128 10.4551 21.1019 10.2834 20.7778 10.2834C20.4536 10.2834 20.1427 10.4551 19.9135 10.7609C19.6843 11.0667 19.5556 11.4815 19.5556 11.9139V18.0861C19.5556 18.5185 19.6843 18.9333 19.9135 19.2391C20.1427 19.5449 20.4536 19.7166 20.7778 19.7166C21.1019 19.7166 21.4128 19.5449 21.642 19.2391C21.8712 18.9333 22 18.5185 22 18.0861V11.9139Z" fill="#FFD700"/>
</svg>